name analog
datacolumns 19
datarows 42
range 0.8665 0.887
endheader
time	ground_force_vx	ground_force_vy	ground_force_vz	ground_force_px	ground_force_py	ground_force_pz	l_ground_force_vx	l_ground_force_vy	l_ground_force_vz	l_ground_force_px	l_ground_force_py	l_ground_force_pz	ground_torque_x	ground_torque_y	ground_torque_z	l_ground_torque_x	l_ground_torque_y	l_ground_torque_z
0.8665	-0.0	-0.0	-0.0	-7.956551551818848	-7.184252262115479	-625.3417358398438	-0.0	-0.0	-0.0	-0.0	-0.0	-0.0	-0.0	-0.0	-0.0	-0.0	-0.0	-0.0
0.867	-0.0	-0.0	-0.0	-8.082178115844727	-7.647486686706543	-630.4963989257812	-0.0	-0.0	-0.0	-0.0	-0.0	-0.0	-0.0	-0.0	-0.0	-0.0	-0.0	-0.0
0.8675	-0.0	-0.0	-0.0	-8.189287185668945	-8.146696090698242	-631.6265258789062	-0.0	-0.0	-0.0	-0.0	-0.0	-0.0	-0.0	-0.0	-0.0	-0.0	-0.0	-0.0
0.868	-0.0	-0.0	-0.0	-7.386643886566162	-7.718651294708252	-634.0994262695312	-0.0	-0.0	-0.0	-0.0	-0.0	-0.0	-0.0	-0.0	-0.0	-0.0	-0.0	-0.0
0.8685	-0.0	-0.0	-0.0	-8.010790824890137	-8.270988464355469	-634.5945434570312	-0.0	-0.0	-0.0	-0.0	-0.0	-0.0	-0.0	-0.0	-0.0	-0.0	-0.0	-0.0
0.869	-0.0	-0.0	-0.0	-7.439830780029297	-7.825541019439697	-635.8681640625	-0.0	-0.0	-0.0	-0.0	-0.0	-0.0	-0.0	-0.0	-0.0	-0.0	-0.0	-0.0
0.8695	-0.0	-0.0	-0.0	-6.779998779296875	-7.753438949584961	-638.2033081054688	-0.0	-0.0	-0.0	-0.0	-0.0	-0.0	-0.0	-0.0	-0.0	-0.0	-0.0	-0.0
0.87	-0.0	-0.0	-0.0	-6.174698352813721	-7.467797756195068	-640.4539184570312	-0.0	-0.0	-0.0	-0.0	-0.0	-0.0	-0.0	-0.0	-0.0	-0.0	-0.0	-0.0
0.8705	-0.0	-0.0	-0.0	-5.708085536956787	-7.2014594078063965	-640.2489624023438	-0.0	-0.0	-0.0	-0.0	-0.0	-0.0	-0.0	-0.0	-0.0	-0.0	-0.0	-0.0
0.871	-0.0	-0.0	-0.0	-4.8173675537109375	-7.343295097351074	-640.0340576171875	-0.0	-0.0	-0.0	-0.0	-0.0	-0.0	-0.0	-0.0	-0.0	-0.0	-0.0	-0.0
0.8715	-0.0	-0.0	-0.0	-4.624606132507324	-7.057572841644287	-643.357177734375	-0.0	-0.0	-0.0	-0.0	-0.0	-0.0	-0.0	-0.0	-0.0	-0.0	-0.0	-0.0
0.872	-0.0	-0.0	-0.0	-4.172362804412842	-6.970445156097412	-643.7022094726562	-0.0	-0.0	-0.0	-0.0	-0.0	-0.0	-0.0	-0.0	-0.0	-0.0	-0.0	-0.0
0.8725	-0.0	-0.0	-0.0	-3.211578369140625	-7.198634624481201	-640.7512817382812	-0.0	-0.0	-0.0	-0.0	-0.0	-0.0	-0.0	-0.0	-0.0	-0.0	-0.0	-0.0
0.873	-0.0	-0.0	-0.0	-2.4794960021972656	-6.438549995422363	-638.2072143554688	-0.0	-0.0	-0.0	-0.0	-0.0	-0.0	-0.0	-0.0	-0.0	-0.0	-0.0	-0.0
0.8735	-0.0	-0.0	-0.0	-2.571779251098633	-6.07932186126709	-637.9642944335938	-0.0	-0.0	-0.0	-0.0	-0.0	-0.0	-0.0	-0.0	-0.0	-0.0	-0.0	-0.0
0.874	-0.0	-0.0	-0.0	-2.3161284923553467	-5.384812831878662	-636.2236328125	-0.0	-0.0	-0.0	-0.0	-0.0	-0.0	-0.0	-0.0	-0.0	-0.0	-0.0	-0.0
0.8745	-0.0	-0.0	-0.0	-1.8064037561416624	-5.381302356719971	-635.9892578125	-0.0	-0.0	-0.0	-0.0	-0.0	-0.0	-0.0	-0.0	-0.0	-0.0	-0.0	-0.0
0.875	-0.0	-0.0	-0.0	-1.914691686630249	-5.563331604003906	-634.5325317382812	-0.0	-0.0	-0.0	-0.0	-0.0	-0.0	-0.0	-0.0	-0.0	-0.0	-0.0	-0.0
0.8755000000000001	-0.0	-0.0	-0.0	-1.7426681518554688	-6.328258514404297	-632.9889526367188	-0.0	-0.0	-0.0	-0.0	-0.0	-0.0	-0.0	-0.0	-0.0	-0.0	-0.0	-0.0
0.876	-0.0	-0.0	-0.0	-1.4086298942565918	-6.24360466003418	-634.943359375	-0.0	-0.0	-0.0	-0.0	-0.0	-0.0	-0.0	-0.0	-0.0	-0.0	-0.0	-0.0
0.8765000000000001	-0.0	-0.0	-0.0	-1.1645636558532717	-7.078883171081543	-633.5685424804688	-0.0	-0.0	-0.0	-0.0	-0.0	-0.0	-0.0	-0.0	-0.0	-0.0	-0.0	-0.0
0.877	-0.0	-0.0	-0.0	-0.784048318862915	-6.544178009033203	-634.0126953125	-0.0	-0.0	-0.0	-0.0	-0.0	-0.0	-0.0	-0.0	-0.0	-0.0	-0.0	-0.0
0.8775000000000001	-0.0	-0.0	-0.0	-0.4649716913700104	-6.252649784088135	-630.244140625	-0.0	-0.0	-0.0	-0.0	-0.0	-0.0	-0.0	-0.0	-0.0	-0.0	-0.0	-0.0
0.878	-0.0	-0.0	-0.0	-0.6947254538536072	-5.245329856872559	-634.1080932617188	-0.0	-0.0	-0.0	-0.0	-0.0	-0.0	-0.0	-0.0	-0.0	-0.0	-0.0	-0.0
0.8785000000000001	-0.0	-0.0	-0.0	-1.070526123046875	-5.431098461151123	-634.3864135742188	-0.0	-0.0	-0.0	-0.0	-0.0	-0.0	-0.0	-0.0	-0.0	-0.0	-0.0	-0.0
0.879	-0.0	-0.0	-0.0	-1.0896133184432983	-4.634780883789063	-633.2762451171875	-0.0	-0.0	-0.0	-0.0	-0.0	-0.0	-0.0	-0.0	-0.0	-0.0	-0.0	-0.0
0.8795000000000001	-0.0	-0.0	-0.0	-1.6184959411621094	-5.169563293457031	-632.6712646484375	-0.0	-0.0	-0.0	-0.0	-0.0	-0.0	-0.0	-0.0	-0.0	-0.0	-0.0	-0.0
0.88	-0.0	-0.0	-0.0	-0.9813156127929688	-4.78137731552124	-632.5452880859375	-0.0	-0.0	-0.0	-0.0	-0.0	-0.0	-0.0	-0.0	-0.0	-0.0	-0.0	-0.0
0.8805000000000001	-0.0	-0.0	-0.0	0.1137260198593139	-5.118874549865723	-632.822265625	-0.0	-0.0	-0.0	-0.0	-0.0	-0.0	-0.0	-0.0	-0.0	-0.0	-0.0	-0.0
0.881	-0.0	-0.0	-0.0	0.4460525512695312	-5.564639091491699	-634.3777465820312	-0.0	-0.0	-0.0	-0.0	-0.0	-0.0	-0.0	-0.0	-0.0	-0.0	-0.0	-0.0
0.8815000000000001	-0.0	-0.0	-0.0	0.5857391357421875	-5.595865249633789	-633.88134765625	-0.0	-0.0	-0.0	-0.0	-0.0	-0.0	-0.0	-0.0	-0.0	-0.0	-0.0	-0.0
0.882	-0.0	-0.0	-0.0	0.6360586881637573	-6.297295093536377	-633.8043212890625	-0.0	-0.0	-0.0	-0.0	-0.0	-0.0	-0.0	-0.0	-0.0	-0.0	-0.0	-0.0
0.8825000000000001	-0.0	-0.0	-0.0	1.198660373687744	-7.002412796020508	-633.5277709960938	-0.0	-0.0	-0.0	-0.0	-0.0	-0.0	-0.0	-0.0	-0.0	-0.0	-0.0	-0.0
0.883	-0.0	-0.0	-0.0	1.6949996948242188	-6.863040924072266	-633.2515869140625	-0.0	-0.0	-0.0	-0.0	-0.0	-0.0	-0.0	-0.0	-0.0	-0.0	-0.0	-0.0
0.8835000000000001	-0.0	-0.0	-0.0	1.97354793548584	-7.81527042388916	-633.5958251953125	-0.0	-0.0	-0.0	-0.0	-0.0	-0.0	-0.0	-0.0	-0.0	-0.0	-0.0	-0.0
0.884	-0.0	-0.0	-0.0	2.697673320770264	-8.01279067993164	-635.9215698242188	-0.0	-0.0	-0.0	-0.0	-0.0	-0.0	-0.0	-0.0	-0.0	-0.0	-0.0	-0.0
0.8845000000000001	-0.0	-0.0	-0.0	2.280069351196289	-8.458097457885742	-631.9537353515625	-0.0	-0.0	-0.0	-0.0	-0.0	-0.0	-0.0	-0.0	-0.0	-0.0	-0.0	-0.0
0.885	-0.0	-0.0	-0.0	2.3692007064819336	-8.170038223266602	-631.0138549804688	-0.0	-0.0	-0.0	-0.0	-0.0	-0.0	-0.0	-0.0	-0.0	-0.0	-0.0	-0.0
0.8855000000000001	-0.0	-0.0	-0.0	2.260030031204224	-8.269330978393555	-631.0150756835938	-0.0	-0.0	-0.0	-0.0	-0.0	-0.0	-0.0	-0.0	-0.0	-0.0	-0.0	-0.0
0.886	-0.0	-0.0	-0.0	2.6662604808807373	-7.2790679931640625	-629.994384765625	-0.0	-0.0	-0.0	-0.0	-0.0	-0.0	-0.0	-0.0	-0.0	-0.0	-0.0	-0.0
0.8865000000000001	-0.0	-0.0	-0.0	2.50747013092041	-7.447172164916992	-630.4641723632812	-0.0	-0.0	-0.0	-0.0	-0.0	-0.0	-0.0	-0.0	-0.0	-0.0	-0.0	-0.0
0.887	-0.0	-0.0	-0.0	2.279510259628296	-7.388547420501709	-630.895263671875	-0.0	-0.0	-0.0	-0.0	-0.0	-0.0	-0.0	-0.0	-0.0	-0.0	-0.0	-0.0
